:SAMPLES-PER-SECOND 30
:FULLY-SPECIFIED
:DEGREES
214
root  13.3631 40.39 -8.59113 -56.2646 -77.6957 53.9395
RightUpLeg  -9.15947 -11.1133 -26.9515
RightLeg  23.0236 -18.8658 -8.7846
RightFoot  20.7271 -6.45699 22.6864
RightToes  -5.28226e-011 1.30204e-014 -6.03759e-014
Spine  29.5342 -1.96208 -12.9922
Spine1  -8.10001 -7.05103 14.5456
HEad  -17.3793 16.3638 -11.5296
LeftShoulder1  2.31912 -3.61655 -26.2659
LeftArm  7.48914 24.2915 -28.7785
LeftForeArm  -44.4483 -16.8519 -10.1205
LeftHand  -0.339361 3.43391 19.9485
RightShoulder  1.39211 1.68712 20.513
RightArm  -37.3799 -23.9206 44.3896
RightForeArm  -28.6686 45.5687 13.3146
RightHand  -1.18875 -0.506466 -27.8377
LeftUpLeg  -23.7043 4.75605 35.0199
LeftLeg  18.2086 9.20915 3.7027
LeftFoot  16.408 3.60655 -14.9286
LeftToes  -2.75829e-010 5.07641e-011 -5.51782e-011
215
root  13.3196 40.6707 -8.81051 -35.3834 -72.4267 33.2399
RightUpLeg  -4.11829 -12.5194 -28.5884
RightLeg  19.966 -18.7052 -7.55428
RightFoot  22.2499 -7.80462 26.0243
RightToes  -5.28226e-011 1.30204e-014 -6.03759e-014
Spine  29.6058 -1.70341 -3.45555
Spine1  -8.77864 -3.748 5.30343
HEad  -14.9514 -0.811808 -6.05171
LeftShoulder1  1.28218 -0.889335 -22.969
LeftArm  -1.67378 4.43499 -31.2679
LeftForeArm  -31.3192 -3.79441 -15.3667
LeftHand  -0.156724 4.60362 22.1375
RightShoulder  1.99674 3.3158 23.0958
RightArm  -41.0299 -44.6326 44.4465
RightForeArm  -28.4252 56.3566 18.8825
RightHand  -0.8431 -1.54478 -25.2004
LeftUpLeg  -33.0878 4.85467 30.5924
LeftLeg  21.399 9.01213 4.18542
LeftFoot  16.7701 3.24459 -13.3592
LeftToes  -2.75829e-010 5.07641e-011 -5.51782e-011
216
root  13.3906 40.5152 -8.81979 -33.6686 -69.0818 30.7944
RightUpLeg  -2.31306 -12.6564 -31.1141
RightLeg  21.2389 -15.9095 -6.8871
RightFoot  21.1536 -8.29228 28.4568
RightToes  -5.28226e-011 1.30204e-014 -6.03759e-014
Spine  29.4177 0.125894 8.77353
Spine1  -6.2012 2.66406 -10.0817
HEad  -16.4695 -20.6224 -0.0530786
LeftShoulder1  0.87183 0.37924 -21.5894
LeftArm  -9.96007 -14.2604 -37.9771
LeftForeArm  -27.7907 0.303738 -13.6592
LeftHand  -0.115066 4.85029 23.8805
RightShoulder  2.37162 3.81717 26.4537
RightArm  -35.9368 -57.2525 41.3247
RightForeArm  -28.071 52.7006 16.8486
RightHand  -0.923563 -0.663331 -22.4633
LeftUpLeg  -37.702 6.96115 24.1022
LeftLeg  24.3481 6.78398 3.66633
LeftFoot  17.9224 5.32197 -20.4761
LeftToes  -2.75829e-010 5.07641e-011 -5.51782e-011
217
root  13.5062 40.1932 -8.82432 -41.4646 -70.4457 37.9807
RightUpLeg  -4.92884 -12.612 -32.556
RightLeg  24.7895 -12.7939 -6.59097
RightFoot  19.2497 -7.48956 27.4039
RightToes  -5.28226e-011 1.30204e-014 -6.03759e-014
Spine  30.3957 1.74658 14.234
Spine1  -3.01359 7.4567 -18.7778
HEad  -20.4592 -28.6913 3.1777
LeftShoulder1  0.744477 0.829743 -21.4511
LeftArm  -11.6771 -17.2636 -41.693
LeftForeArm  -32.4122 -11.4741 -11.0739
LeftHand  -0.102894 4.91467 24.0653
RightShoulder  2.05135 2.99391 25.439
RightArm  -22.7971 -54.5066 34.5511
RightForeArm  -30.3008 42.5613 12.0264
RightHand  -1.29197 0.727241 -24.4108
LeftUpLeg  -35.7642 10.1679 20.3859
LeftLeg  23.886 1.89017 1.29039
LeftFoot  22.5285 8.58904 -28.2066
LeftToes  -2.75829e-010 5.07641e-011 -5.51782e-011
218
root  13.5047 39.702 -8.85029 -57.6206 -73.8281 54.3739
RightUpLeg  -10.4645 -10.5659 -32.4564
RightLeg  29.2322 -10.8783 -6.74846
RightFoot  16.092 -6.20552 25.518
RightToes  -5.28226e-011 1.30204e-014 -6.03759e-014
Spine  31.127 1.50308 10.8562
Spine1  -3.26412 6.63249 -18.5969
HEad  -20.3048 -21.747 -0.322929
LeftShoulder1  0.830979 0.481269 -20.9539
LeftArm  -12.1459 -2.33537 -38.6515
LeftForeArm  -42.4216 -33.1296 -8.73052
LeftHand  0.0705387 5.74892 23.5269
RightShoulder  1.39143 1.55671 21.3014
RightArm  -17.9948 -38.1763 30.8008
RightForeArm  -34.2225 31.0945 8.34749
RightHand  -1.31845 0.262327 -26.7841
LeftUpLeg  -29.9275 12.3591 20.7277
LeftLeg  21.2764 -3.13308 -1.04255
LeftFoot  26.2473 10.4371 -30.5943
LeftToes  -2.75829e-010 5.07641e-011 -5.51782e-011
219
root  13.3214 38.8875 -8.86542 -81.2056 -75.7782 78.1628
RightUpLeg  -16.276 -6.43486 -32.2752
RightLeg  34.7594 -8.59282 -6.58818
RightFoot  10.6962 -4.92537 25.3294
RightToes  -5.28226e-011 1.30204e-014 -6.03759e-014
Spine  30.8764 -0.210406 2.26653
Spine1  -6.13405 1.61039 -12.7143
HEad  -16.8725 -5.53077 -8.64057
LeftShoulder1  1.73935 -2.30435 -23.5442
LeftArm  -24.2611 21.7892 -29.6012
LeftForeArm  -39.1875 -48.366 -14.5685
LeftHand  0.277843 6.77748 23.553
RightShoulder  0.948513 0.413179 17.6369
RightArm  -22.5499 -18.1825 35.2781
RightForeArm  -32.9684 25.9176 7.00685
RightHand  -1.55972 0.82583 -28.7443
LeftUpLeg  -22.2607 11.1817 23.4866
LeftLeg  20.1454 -2.23467 -0.570335
LeftFoot  24.718 9.57281 -29.3103
LeftToes  -2.75829e-010 5.07641e-011 -5.51782e-011
220
root  13.0281 37.7657 -8.86636 -103.424 -76.0169 99.453
RightUpLeg  -20.257 -2.48952 -32.0928
RightLeg  41.0036 -5.71598 -5.57418
RightFoot  3.83189 -3.42186 25.4385
RightToes  -5.28226e-011 1.30204e-014 -6.03759e-014
Spine  30.5857 -2.4378 -6.25782
Spine1  -7.777 -3.72287 -4.98369
HEad  -16.3806 12.2189 -16.4746
LeftShoulder1  2.50149 -4.26133 -26.1738
LeftArm  -22.8261 39.8979 -22.3603
LeftForeArm  -42.4112 -48.3983 -15.0357
LeftHand  0.175059 6.33331 21.683
RightShoulder  0.459041 -1.26717 13.7681
RightArm  -23.3408 -4.34013 47.1036
RightForeArm  -28.0067 28.3385 7.38345
RightHand  -1.82912 1.67195 -29.6752
LeftUpLeg  -14.5015 8.08578 26.6404
LeftLeg  21.7247 2.6142 1.48852
LeftFoot  23.0556 7.94246 -25.787
LeftToes  -2.75829e-010 5.07641e-011 -5.51782e-011
221
root  12.7651 36.5891 -8.79154 -111.866 -77.0348 106.744
RightUpLeg  -21.4774 -1.94589 -31.2398
RightLeg  46.2411 -3.45356 -4.18663
RightFoot  -3.16267 -1.8233 24.8489
RightToes  -5.28226e-011 1.30204e-014 -6.03759e-014
Spine  30.6538 -4.66151 -12.1974
Spine1  -7.10826 -8.34729 3.1278
HEad  -19.1775 26.0156 -21.5971
LeftShoulder1  2.1991 -3.66612 -24.4062
LeftArm  -12.4341 45.0046 -20.5373
LeftForeArm  -48.3312 -35.3169 -10.1138
LeftHand  -0.0807791 4.96162 18.7502
RightShoulder  0.191917 -2.50347 12.8716
RightArm  -23.1265 -2.37993 56.9278
RightForeArm  -20.8707 39.4802 10.6677
RightHand  -1.55847 0.760263 -29.0188
LeftUpLeg  -10.2309 4.71523 28.9821
LeftLeg  24.4363 3.12535 1.8499
LeftFoot  25.796 6.77255 -20.535
LeftToes  -2.75829e-010 5.07641e-011 -5.51782e-011
